<svg xmlns="http://www.w3.org/2000/svg" style="display:none">
  <symbol id="icon-rect" viewBox="0 0 24 24">
    <rect width="18" height="18" x="3" y="3" rx="2"/>
  </symbol>
  <symbol id="icon-circle" viewBox="0 0 24 24">
    <circle cx="12" cy="12" r="10"/>
  </symbol>
  <symbol id="icon-ellipse" viewBox="0 0 24 24">
    <ellipse cx="12" cy="12" rx="10" ry="6"/>
  </symbol>
  <symbol id="icon-polygon" viewBox="0 0 24 24">
    <path d="M3.5 8.7 12 2l8.5 6.7-3.2 9.9H6.7L3.5 8.7z"/>
  </symbol>
  <symbol id="icon-save" viewBox="0 0 24 24">
    <path d="M21 15v4a2 2 0 0 1-2 2H5a2 2 0 0 1-2-2v-4"/>
    <polyline points="7 10 12 15 17 10"/>
    <line x1="12" x2="12" y1="15" y2="3"/>
  </symbol>
  <symbol id="icon-load" viewBox="0 0 24 24">
    <path d="M21 15v4a2 2 0 0 1-2 2H5a2 2 0 0 1-2-2v-4"/>
    <polyline points="17 8 12 3 7 8"/>
    <line x1="12" x2="12" y1="3" y2="15"/>
  </symbol>
  <symbol id="icon-search" viewBox="0 0 24 24">
    <circle cx="11" cy="11" r="8"/>
    <path d="m21 21-4.3-4.3"/>
  </symbol>
  <symbol id="icon-add-plant" viewBox="0 0 24 24">
    <circle cx="12" cy="12" r="10"/>
    <path d="M8 12h8"/>
    <path d="M12 8v8"/>
  </symbol>
</svg>
